<svg id="Ebene_2" data-name="Ebene 2" xmlns="http://www.w3.org/2000/svg" viewBox="0 0 821.49 109.3"><defs><style>.cls-1{fill:#1d71b8;}.cls-2{fill:#3c3c3b;}</style></defs><title>Logo 1.3</title><path class="cls-1" d="M28.41,198.87l-6.24,31.24a38.11,38.11,0,0,0-.86,5.56,7.07,7.07,0,0,0,.59,2.71,18.75,18.75,0,0,1-8.37,2.3c-1.56,0-2.35-.63-2.35-1.89a46.65,46.65,0,0,1,.91-5.61l6.82-34.31h-.67a23,23,0,0,0-8.77,1.95c1.47-3.2,2.78-5.25,3.91-6.17s2.93-1.38,5.4-1.38H20l5.42-27h-1q-9.85,0-15.69,5.38,1.77-7.14,6.11-9.54,3.06-1.68,19.07-1.67H45.81q13.29,0,22.1-2.35-2.8,4.92-5.85,6.57c-2,1.1-5.16,1.65-9.38,1.65l-4,0H34.87l-5.38,27h9.76q9.09,0,15-2.31-2.17,5.11-5,6.51t-11.1,1.4Z" transform="translate(-8.74 -148.11)"/><path class="cls-1" d="M76,227a12.67,12.67,0,0,1-5,1.45q-4.64,0-4.63-4.07A76.34,76.34,0,0,1,68.05,214l2.26-11.26q2.07-10,2.08-14.87a6.51,6.51,0,0,0-1.5-4.38,25,25,0,0,1,7.73-1.63q3.16,0,3.17,4,0,2.49-2.24,13.06L77,212.12q8.54-16.59,17.18-25.79t15.69-9.2a6.71,6.71,0,0,1,4.29,1.43A4.24,4.24,0,0,1,116,182q0,3.17-6.87,8.41-1.71-3.57-4.88-3.57-5.73,0-14.62,12.2A114.74,114.74,0,0,0,80,214.72Q76,222.79,76,226.22Z" transform="translate(-8.74 -148.11)"/><path class="cls-1" d="M168.66,190.32q-10.22,17.9-20.65,28t-18.76,10.11a10.65,10.65,0,0,1-8.16-3.3,12.21,12.21,0,0,1-3.1-8.69,36.91,36.91,0,0,1,.91-6.46l1-5q2.22-10.77,2.22-15.11a5.85,5.85,0,0,0-1.54-4.2,47.38,47.38,0,0,1,7.37-1.35q3.34,0,3.34,4.69A54,54,0,0,1,130,199l-1.76,8.81a55,55,0,0,0-1.31,8.26q0,5.6,4.74,5.6,5.66,0,15.06-9.5a129.11,129.11,0,0,0,18.21-24.1Zm-40.22-22.76.63,0q3-.14,8.7-3a39.07,39.07,0,0,0,8.88-6A21.89,21.89,0,0,1,139.6,169q-7.68,6.42-10.4,6.42c-1.2,0-1.8-.74-1.8-2.21A14.68,14.68,0,0,1,128.44,167.56Z" transform="translate(-8.74 -148.11)"/><path class="cls-1" d="M194.34,200.86q-7.05,12.7-14.76,20.14t-13.76,7.44a8.83,8.83,0,0,1-7.69-4.23q-2.85-4.23-2.85-11.32a39.14,39.14,0,0,1,8.5-25q8.5-10.74,19.76-10.74,6.74,0,14.69,4.3l4.83-24.33a33.59,33.59,0,0,1-6.6.82q-4,0-5.83-1.88c-1.23-1.26-2.23-3.62-3-7.07q3.25,2.22,10,2.22a43.56,43.56,0,0,0,16.14-3.08l-9.86,49.54a74.06,74.06,0,0,0-1.67,14.15q0,7.77,4.43,7.78t14.44-10.17A114.28,114.28,0,0,0,238,188.12l3.7,2.35a109,109,0,0,1-20.09,26.35q-12,11.61-19.23,11.62-9.14,0-9.13-14.65A80.24,80.24,0,0,1,194.34,200.86Zm2.39-12q-9.39-6.18-15.64-6.19-6.78,0-11.72,8.32t-5,19.66q0,9.14,6,9.13,6.42,0,24.68-28.38C195.27,191.08,195.83,190.24,196.73,188.88Z" transform="translate(-8.74 -148.11)"/><path class="cls-1" d="M266.07,200.14A46.75,46.75,0,0,1,253.37,216q-8.31,6.84-14.91,6.83a10.5,10.5,0,0,1-8.05-3.34,12.23,12.23,0,0,1-3.12-8.68q0-12.48,9.49-23.08t20.7-10.6a28.4,28.4,0,0,1,12.48,3.3c.6-2.89,1.48-4.71,2.62-5.47s4.06-1.37,8.73-1.85q-3.53,7.09-6.74,33.81l-.59,4.61q19.39-11.65,29.93-23.82l3.79,2.39q-9.94,13-34,28.3c-.09,1.18-.15,2-.18,2.62q-.69,11.35-2.4,16.73A27.29,27.29,0,0,1,264.9,248a28,28,0,0,1-21.34,9.45q-6.74,0-10.94-3.19a9.89,9.89,0,0,1-4.2-8.25,11.93,11.93,0,0,1,3.64-8.63q3.63-3.71,13.67-9,6.65-3.48,18.76-10.4Zm2.31-11.75q-5.88-6.24-12.93-6.24-6.69,0-12.61,8.38a30.38,30.38,0,0,0-5.92,17.84q0,6.69,4.93,6.69t12.72-8A82.82,82.82,0,0,0,268.38,188.39ZM264,223.92q-2.62,1.58-10.62,6.05-15.64,8.82-15.64,15.55a6,6,0,0,0,2.53,4.93,10.34,10.34,0,0,0,6.46,1.94Q264,252.39,264,223.92Z" transform="translate(-8.74 -148.11)"/><path class="cls-1" d="M304.31,208.49q0,13.22,11.21,13.21,9.72,0,21.43-9.25t21.11-24.35l3.84,2.12a83.68,83.68,0,0,1-23,27.37Q324.7,228.44,312,228.44q-8.14,0-12.86-5.25t-4.73-14.33A32,32,0,0,1,303,186.44q8.56-9.3,20.63-9.31,5.83,0,9.34,2.94a9.75,9.75,0,0,1,3.5,7.86q0,8.08-9.74,14.32A40.61,40.61,0,0,1,304.31,208.49Zm.36-4.34a29.61,29.61,0,0,0,16.21-5.41q6.75-4.92,6.76-11.36,0-5.77-5.16-5.77c-4.09,0-7.88,2.19-11.34,6.58A32.17,32.17,0,0,0,304.67,204.15Z" transform="translate(-8.74 -148.11)"/><path class="cls-2" d="M409.23,227.31h-7.42v-7.24h-.18q-4.83,8.33-14.24,8.32-6.92,0-10.82-3.66a12.67,12.67,0,0,1-3.91-9.72q0-13,15.28-15.1L401.81,198q0-11.81-9.54-11.8a22.77,22.77,0,0,0-15.09,5.7v-7.6a28.7,28.7,0,0,1,15.73-4.34q16.32,0,16.32,17.27Zm-7.42-23.42-11.16,1.54a18.12,18.12,0,0,0-7.78,2.55c-1.74,1.22-2.62,3.38-2.62,6.49a7.09,7.09,0,0,0,2.42,5.54,9.34,9.34,0,0,0,6.44,2.14,11.92,11.92,0,0,0,9.11-3.86,13.84,13.84,0,0,0,3.59-9.79Z" transform="translate(-8.74 -148.11)"/><path class="cls-1" d="M424.37,184.59a11.35,11.35,0,0,1-1.09-4.84q0-8.13,12.43-14.57a60.26,60.26,0,0,1,28.16-6.44q16.54,0,26.06,7.32t9.52,20.07q0,17-14.78,29.87a62.06,62.06,0,0,1-19.55,11.17,64.71,64.71,0,0,1-22.45,4.34q-10.31,0-10.3-7.73a76.06,76.06,0,0,1,1.76-11.57L440,182.69a31.73,31.73,0,0,0,.77-5.47,4.45,4.45,0,0,0-1.09-2.89q6-2.27,8.36-2.26,2.81,0,2.81,3.25c0,.52-.49,3.15-1.45,7.91L444.48,208q-1.85,9.45-1.85,11.89c0,1.81.61,3,1.83,3.68s3.52,1,6.89,1q16.41,0,27.48-10a32.06,32.06,0,0,0,11.08-24.77q0-11.43-8.05-18.3t-21.42-6.87a41.18,41.18,0,0,0-20.32,5.24A45.14,45.14,0,0,0,424.37,184.59Z" transform="translate(-8.74 -148.11)"/><path class="cls-1" d="M561.42,190.32q-10.21,17.9-20.66,28T522,228.44a10.68,10.68,0,0,1-8.16-3.3,12.21,12.21,0,0,1-3.09-8.69,36.65,36.65,0,0,1,.9-6.46l1-5q2.21-10.77,2.21-15.11a5.85,5.85,0,0,0-1.54-4.2,47.58,47.58,0,0,1,7.37-1.35q3.34,0,3.35,4.69a54.93,54.93,0,0,1-1.31,10L521,207.84a55,55,0,0,0-1.31,8.26q0,5.6,4.75,5.6,5.64,0,15.05-9.5a129.13,129.13,0,0,0,18.22-24.1Zm-40.23-22.76.63,0q3-.14,8.7-3a39.07,39.07,0,0,0,8.88-6,21.89,21.89,0,0,1-7,10.44q-7.68,6.42-10.39,6.42c-1.21,0-1.81-.74-1.81-2.21A14.87,14.87,0,0,1,521.19,167.56Z" transform="translate(-8.74 -148.11)"/><path class="cls-1" d="M563.86,211.08q16-33.95,28.84-34,10,0,10,19.89l.09,5.47q0,9.49,1,13.13t3.55,3.64q3.88,0,8.83-6.19t16.12-24.91l3.79,2.22q-9.94,18.75-17.8,27.84t-14.11,9.09q-5.73,0-8.07-5.56t-2.32-19.26l0-3.89q0-7.41-1-10.42t-3.3-3q-6,0-19.21,23.82-3.26,5.83-4.2,7.5-3.48,6.06-3.48,8.77a4,4,0,0,0,.58,2.08,12.07,12.07,0,0,1-4.42,1.09q-4.58,0-4.57-5.07,0-1.44,1.18-13l1-9.8a96.69,96.69,0,0,0,.68-9.68,12,12,0,0,0-2.17-7.55l3.16-1.08a14.34,14.34,0,0,1,4.48-1c2.35,0,3.52,1.71,3.52,5.15,0,1.81-.22,4.91-.68,9.31q-.13,1.44-.27,2.76Z" transform="translate(-8.74 -148.11)"/><path class="cls-1" d="M638.53,211.08q16.05-33.95,28.84-34,10,0,10,19.89l.09,5.47q0,9.49,1,13.13t3.55,3.64q3.88,0,8.84-6.19t16.11-24.91l3.8,2.22q-9.94,18.75-17.81,27.84t-14.11,9.09q-5.73,0-8.06-5.56t-2.33-19.26l0-3.89c0-4.94-.31-8.41-1-10.42s-1.73-3-3.3-3q-6,0-19.21,23.82-3.25,5.83-4.2,7.5-3.48,6.06-3.48,8.77a4.05,4.05,0,0,0,.59,2.08,12.16,12.16,0,0,1-4.43,1.09q-4.57,0-4.57-5.07,0-1.44,1.18-13l1-9.8a96.69,96.69,0,0,0,.68-9.68,11.9,11.9,0,0,0-2.17-7.55l3.16-1.08a14.34,14.34,0,0,1,4.48-1c2.35,0,3.52,1.71,3.52,5.15q0,2.72-.67,9.31-.13,1.44-.27,2.76Z" transform="translate(-8.74 -148.11)"/><path class="cls-1" d="M707.33,208.49q0,13.22,11.21,13.21,9.72,0,21.42-9.25t21.11-24.35l3.84,2.12a83.56,83.56,0,0,1-23,27.37Q727.72,228.44,715,228.44q-8.13,0-12.86-5.25t-4.72-14.33A32,32,0,0,1,706,186.44q8.57-9.3,20.64-9.31c3.88,0,7,1,9.33,2.94a9.72,9.72,0,0,1,3.5,7.86q0,8.08-9.74,14.32A40.6,40.6,0,0,1,707.33,208.49Zm.36-4.34a29.55,29.55,0,0,0,16.2-5.41q6.76-4.92,6.76-11.36,0-5.77-5.15-5.77-6.15,0-11.35,6.58A32.16,32.16,0,0,0,707.69,204.15Z" transform="translate(-8.74 -148.11)"/><path class="cls-1" d="M763.38,227a12.67,12.67,0,0,1-5,1.45q-4.63,0-4.64-4.07A78.11,78.11,0,0,1,755.42,214l2.26-11.26q2.09-10,2.08-14.87a6.55,6.55,0,0,0-1.49-4.38,25,25,0,0,1,7.73-1.63q3.16,0,3.16,4,0,2.49-2.24,13.06l-2.56,13.16q8.53-16.59,17.18-25.79t15.7-9.2a6.74,6.74,0,0,1,4.29,1.43,4.26,4.26,0,0,1,1.8,3.45q0,3.17-6.87,8.41c-1.14-2.38-2.77-3.57-4.87-3.57q-5.73,0-14.63,12.2a114.74,114.74,0,0,0-9.57,15.67q-4.07,8.07-4.06,11.5Z" transform="translate(-8.74 -148.11)"/><path class="cls-1" d="M811.38,216.46l3.25-.64a28.27,28.27,0,0,1,4.75-.63q3.93,0,3.93,4.11a21.09,21.09,0,0,1-.45,3.94l-.59,3.07-2.08.36a50,50,0,0,1-5.28.82q-3.21,0-3.21-3.35a8.54,8.54,0,0,1,.18-1.76l.22-1.18a7.06,7.06,0,0,0,.18-1.62A5.23,5.23,0,0,0,811.38,216.46Zm12.11-7.37-2.39.5a7.65,7.65,0,0,1-1.49.13q-3.86,0-3.85-3.57a32.69,32.69,0,0,1,.82-6l.9-4.56a155.46,155.46,0,0,0,3.3-30.42,16,16,0,0,0-.36-3.17,19,19,0,0,1,5.33-1.62c3,0,4.48,1.59,4.48,4.79q0,4.25-3.57,19.21-1.63,6.83-2.49,11.21l-.63,3.12a33.1,33.1,0,0,0-.68,6.46A12.28,12.28,0,0,0,823.49,209.09Z" transform="translate(-8.74 -148.11)"/></svg>