<svg id="Ebene_2" data-name="Ebene 2" xmlns="http://www.w3.org/2000/svg" viewBox="0 0 820.11 93.53"><defs><style>.cls-1{fill:#3c3c3b;}.cls-2{fill:#1d71b8;}</style></defs><title>Logo 1.1</title><path class="cls-1" d="M78,176.18,62.36,231.65H54.74L43.33,191.11a25.12,25.12,0,0,1-.89-5.64h-.16a28.9,28.9,0,0,1-1,5.57L29.79,231.65H22.25L6,176.18h7.16L25,218.73a28.06,28.06,0,0,1,.93,5.57h.19a33.05,33.05,0,0,1,1.2-5.57l12.26-42.55h6.23L57.52,219a32.08,32.08,0,0,1,.93,5.18h.15a31.25,31.25,0,0,1,1-5.34L71,176.18Z" transform="translate(-6 -163.88)"/><path class="cls-1" d="M118.29,231.65h-6.35V208.83q0-12.37-9.2-12.38A10,10,0,0,0,94.92,200a13.34,13.34,0,0,0-3.17,9.18v22.44H85.41V173h6.34v25.61h.16q4.56-7.51,13-7.51,13.38,0,13.39,16.13Z" transform="translate(-6 -163.88)"/><path class="cls-1" d="M158.59,231.65h-6.34v-6.19h-.16a13.29,13.29,0,0,1-12.18,7.12q-5.92,0-9.27-3.14a10.83,10.83,0,0,1-3.34-8.31q0-11.1,13.07-12.92l11.88-1.66q0-10.1-8.17-10.1a19.51,19.51,0,0,0-12.91,4.87v-6.49a24.5,24.5,0,0,1,13.46-3.72q14,0,14,14.78Zm-6.34-20-9.56,1.32a15.5,15.5,0,0,0-6.65,2.18c-1.5,1-2.24,2.9-2.24,5.55a6,6,0,0,0,2.07,4.74,7.94,7.94,0,0,0,5.51,1.84,10.17,10.17,0,0,0,7.79-3.31,11.8,11.8,0,0,0,3.08-8.37Z" transform="translate(-6 -163.88)"/><path class="cls-1" d="M188.91,231.26A12.12,12.12,0,0,1,183,232.5q-10.41,0-10.41-11.6V197.46h-6.81V192h6.81v-9.67l6.34-2.05V192h10v5.42h-10v22.31c0,2.66.46,4.56,1.36,5.69s2.4,1.7,4.49,1.7a6.7,6.7,0,0,0,4.13-1.31Z" transform="translate(-6 -163.88)"/><path class="cls-1" d="M205,175.25l-4.17,17.26h-5.81l5.42-17.26Z" transform="translate(-6 -163.88)"/><path class="cls-1" d="M213.13,230.22v-6.81a18.78,18.78,0,0,0,11.41,3.83q8.36,0,8.35-5.57a4.9,4.9,0,0,0-.71-2.69,7.33,7.33,0,0,0-1.94-1.95,14.47,14.47,0,0,0-2.86-1.53q-1.65-.67-3.54-1.41a46.73,46.73,0,0,1-4.62-2.11,14,14,0,0,1-3.33-2.4,8.92,8.92,0,0,1-2-3,10.82,10.82,0,0,1-.68-4,9.48,9.48,0,0,1,1.28-4.93,11.44,11.44,0,0,1,3.4-3.6,16.06,16.06,0,0,1,4.86-2.18,21.53,21.53,0,0,1,5.63-.74,22.81,22.81,0,0,1,9.2,1.78v6.42a17.9,17.9,0,0,0-10-2.86,11.73,11.73,0,0,0-3.21.41,7.77,7.77,0,0,0-2.46,1.14,5.32,5.32,0,0,0-1.59,1.76,4.67,4.67,0,0,0-.56,2.26,5.45,5.45,0,0,0,.56,2.59,5.78,5.78,0,0,0,1.65,1.86,12.69,12.69,0,0,0,2.63,1.47c1,.44,2.2.91,3.52,1.43a49.9,49.9,0,0,1,4.72,2.07,16.2,16.2,0,0,1,3.55,2.4,9.4,9.4,0,0,1,2.27,3.07,9.9,9.9,0,0,1,.79,4.14,9.73,9.73,0,0,1-1.3,5.11,11,11,0,0,1-3.46,3.59,15.52,15.52,0,0,1-5,2.13,24.28,24.28,0,0,1-5.91.7A22.5,22.5,0,0,1,213.13,230.22Z" transform="translate(-6 -163.88)"/><path class="cls-1" d="M274.09,182a4,4,0,0,1-2.91-1.16,3.9,3.9,0,0,1-1.19-2.94,4,4,0,0,1,4.1-4.13,4.06,4.06,0,0,1,3,1.18,4.13,4.13,0,0,1,0,5.86A4,4,0,0,1,274.09,182Zm3.09,49.67h-6.34V192h6.34Z" transform="translate(-6 -163.88)"/><path class="cls-1" d="M322.9,231.65h-6.35V209.06q0-12.62-9.2-12.61a10,10,0,0,0-7.87,3.58,13.22,13.22,0,0,0-3.12,9v22.59H290V192h6.34v6.58h.16q4.49-7.51,13-7.51,6.5,0,9.94,4.2t3.44,12.13Z" transform="translate(-6 -163.88)"/><path class="cls-1" d="M412.79,231.65h-6.34V208.91q0-6.58-2-9.52t-6.82-2.94a8.48,8.48,0,0,0-6.91,3.71,14.25,14.25,0,0,0-2.84,8.9v22.59H381.5V208.13q0-11.69-9-11.68a8.37,8.37,0,0,0-6.89,3.5,14.5,14.5,0,0,0-2.71,9.11v22.59h-6.34V192h6.34v6.27h.16q4.21-7.2,12.3-7.2a11.5,11.5,0,0,1,7.08,2.27,11.28,11.28,0,0,1,4.13,5.93q4.41-8.19,13.16-8.2,13.06,0,13.07,16.13Z" transform="translate(-6 -163.88)"/><path class="cls-1" d="M456.3,192l-18.22,46q-4.86,12.3-13.69,12.3a14.73,14.73,0,0,1-4.14-.5V244.1a11.65,11.65,0,0,0,3.76.7q4.78,0,7.19-5.72l3.17-7.51L418.9,192h7l10.71,30.48c.13.39.4,1.39.82,3h.23c.13-.62.38-1.6.77-2.94L449.73,192Z" transform="translate(-6 -163.88)"/><path class="cls-2" d="M510.92,207.32l-5.34,26.73a32.11,32.11,0,0,0-.73,4.75,6.12,6.12,0,0,0,.5,2.33,16.16,16.16,0,0,1-7.16,2c-1.34,0-2-.54-2-1.63a40,40,0,0,1,.77-4.79l5.85-29.36h-.59a19.68,19.68,0,0,0-7.5,1.66q1.89-4.09,3.35-5.28a7.32,7.32,0,0,1,4.62-1.18h1l4.64-23.13h-.85q-8.43,0-13.42,4.61,1.52-6.12,5.22-8.17,2.64-1.43,16.33-1.43h10.17a74.82,74.82,0,0,0,18.91-2q-2.4,4.22-5,5.63t-8,1.41l-3.41,0H516.45l-4.6,23.13h8.35a35.66,35.66,0,0,0,12.84-2q-1.86,4.37-4.27,5.57t-9.5,1.2Z" transform="translate(-6 -163.88)"/><path class="cls-2" d="M551.65,231.38a10.92,10.92,0,0,1-4.24,1.24q-4,0-4-3.49a65.76,65.76,0,0,1,1.39-8.85l1.93-9.63a69.58,69.58,0,0,0,1.78-12.73,5.6,5.6,0,0,0-1.27-3.75,21.37,21.37,0,0,1,6.61-1.39c1.81,0,2.71,1.14,2.71,3.44q0,2.13-1.92,11.18l-2.19,11.25q7.31-14.19,14.7-22.06t13.43-7.88a5.76,5.76,0,0,1,3.67,1.22,3.67,3.67,0,0,1,1.55,3q0,2.72-5.88,7.2-1.47-3.06-4.17-3.06-4.9,0-12.52,10.44a97,97,0,0,0-8.18,13.41q-3.48,6.9-3.48,9.84Z" transform="translate(-6 -163.88)"/><path class="cls-2" d="M630.94,200q-8.75,15.31-17.68,24t-16,8.65a9.14,9.14,0,0,1-7-2.83,10.4,10.4,0,0,1-2.65-7.43,31.72,31.72,0,0,1,.77-5.53l.85-4.25q1.9-9.21,1.9-12.93a5,5,0,0,0-1.32-3.59,39.79,39.79,0,0,1,6.31-1.16q2.86,0,2.86,4a46.59,46.59,0,0,1-1.12,8.54L596.32,215a46.24,46.24,0,0,0-1.12,7.07c0,3.2,1.35,4.79,4.06,4.79q4.83,0,12.88-8.13a110.66,110.66,0,0,0,15.59-20.62Zm-34.43-19.48.55,0c1.72-.08,4.21-.95,7.44-2.61a33.29,33.29,0,0,0,7.6-5.09,18.76,18.76,0,0,1-6,8.93q-6.59,5.49-8.9,5.49c-1,0-1.54-.63-1.54-1.89A12.77,12.77,0,0,1,596.51,180.52Z" transform="translate(-6 -163.88)"/><path class="cls-2" d="M652.91,209a72.89,72.89,0,0,1-12.63,17.23q-6.6,6.36-11.78,6.37a7.55,7.55,0,0,1-6.57-3.62q-2.45-3.62-2.44-9.69a33.49,33.49,0,0,1,7.27-21.41q7.28-9.18,16.9-9.19,5.77,0,12.58,3.68l4.13-20.81a29.58,29.58,0,0,1-5.64.7c-2.27,0-3.94-.54-5-1.62s-1.91-3.09-2.56-6q2.79,1.89,8.55,1.89a37.09,37.09,0,0,0,13.81-2.63l-8.43,42.4a62.5,62.5,0,0,0-1.43,12.1c0,4.44,1.26,6.65,3.79,6.65s6.59-2.9,12.36-8.7a97.6,97.6,0,0,0,14.4-18.22l3.18,2a93.18,93.18,0,0,1-17.2,22.55q-10.31,9.93-16.45,9.94-7.82,0-7.82-12.54A67.78,67.78,0,0,1,652.91,209ZM655,198.77q-8-5.29-13.38-5.3-5.8,0-10,7.12a32.3,32.3,0,0,0-4.24,16.82q0,7.82,5.11,7.82,5.49,0,21.12-24.29C653.71,200.65,654.19,199.93,655,198.77Z" transform="translate(-6 -163.88)"/><path class="cls-2" d="M714.29,208.4A40,40,0,0,1,703.42,222q-7.11,5.84-12.76,5.84a9,9,0,0,1-6.89-2.86,10.51,10.51,0,0,1-2.66-7.43q0-10.68,8.12-19.74t17.71-9.08a24.37,24.37,0,0,1,10.68,2.83q.76-3.72,2.24-4.68c1-.65,3.47-1.17,7.47-1.59q-3,6.07-5.77,28.93l-.5,4q16.59-10,25.61-20.38l3.25,2q-8.52,11.1-29.13,24.21c-.08,1-.13,1.75-.15,2.24-.39,6.47-1.07,11.25-2,14.31a23.45,23.45,0,0,1-5.3,8.75A24,24,0,0,1,695,257.41a15.08,15.08,0,0,1-9.36-2.73,8.47,8.47,0,0,1-3.6-7.06,10.19,10.19,0,0,1,3.12-7.38q3.1-3.18,11.7-7.74,5.68-3,16.05-8.9Zm2-10.05c-3.36-3.56-7-5.34-11.07-5.34q-5.72,0-10.79,7.17a26,26,0,0,0-5.07,15.26q0,5.73,4.22,5.73t10.89-6.83A71.17,71.17,0,0,0,716.27,198.35Zm-3.72,30.4q-2.24,1.35-9.09,5.18-13.38,7.55-13.38,13.31a5.09,5.09,0,0,0,2.17,4.21,8.79,8.79,0,0,0,5.53,1.67Q712.56,253.12,712.55,228.75Z" transform="translate(-6 -163.88)"/><path class="cls-2" d="M747,215.55q0,11.3,9.59,11.3,8.31,0,18.33-7.91A79.86,79.86,0,0,0,793,198.1l3.29,1.81a71.63,71.63,0,0,1-19.7,23.43q-12.14,9.27-23,9.28-7,0-11-4.49t-4.05-12.26a27.37,27.37,0,0,1,7.33-19.19,23.17,23.17,0,0,1,17.66-8,12,12,0,0,1,8,2.52,8.31,8.31,0,0,1,3,6.73q0,6.91-8.34,12.25A34.74,34.74,0,0,1,747,215.55Zm.3-3.72a25.2,25.2,0,0,0,13.87-4.63Q767,203,767,197.48q0-4.93-4.41-4.94-5.25,0-9.7,5.64A27.49,27.49,0,0,0,747.32,211.83Z" transform="translate(-6 -163.88)"/><path class="cls-2" d="M806.77,216.49a5.9,5.9,0,0,1-3.24.85q-4.72,0-4.72-4,0-5.56,8.35-12.45l1.74-1.39q9.36-7.74,9.36-13.73,0-7.32-7.89-7.31-8,0-14,9.43a6.09,6.09,0,0,1-.77-3.05q0-4.19,5.95-8A22.74,22.74,0,0,1,814,173q5.68,0,8.89,2.88a10.15,10.15,0,0,1,3.21,8q0,7.27-10.17,15.09L814.51,200q-8.7,6.69-8.7,13.07A7,7,0,0,0,806.77,216.49Zm-9.36,5.88,2.79-.55a24.71,24.71,0,0,1,4.1-.54q3.33,0,3.33,3.56a17.23,17.23,0,0,1-.39,3.33l-.5,2.63-1.78.31a41.93,41.93,0,0,1-4.53.69c-1.83,0-2.74-1-2.74-2.86a7.58,7.58,0,0,1,.15-1.51l.19-1a6.43,6.43,0,0,0,.16-1.47A4.3,4.3,0,0,0,797.41,222.37Z" transform="translate(-6 -163.88)"/></svg>