<svg id="Ebene_1" data-name="Ebene 1" xmlns="http://www.w3.org/2000/svg" viewBox="0 0 784.04 109.39"><defs><style>.cls-1{fill:#878787;}.cls-2{fill:#1d71b8;}</style></defs><title>Logo 1.2</title><path class="cls-1" d="M26.3,214.23v24.52H18.7V173.88H36.53q10.39,0,16.12,5.07t5.73,14.29A19.64,19.64,0,0,1,52,208.35q-6.36,5.88-17.17,5.88Zm0-33.47v26.6h8q7.88,0,12-3.6t4.13-10.15q0-12.86-15.2-12.85Z" transform="translate(-18.7 -159.5)"/><path class="cls-1" d="M107.05,238.75H99.64v-7.32h-.19q-4.61,8.41-14.29,8.41-16.56,0-16.56-19.72V192.43H76v26.51q0,14.66,11.21,14.66a11.37,11.37,0,0,0,8.94-4q3.51-4,3.51-10.47V192.43h7.41Z" transform="translate(-18.7 -159.5)"/><path class="cls-1" d="M143.52,238.3a14.26,14.26,0,0,1-6.92,1.45q-12.18,0-12.17-13.57V198.76h-8v-6.33h8V181.12l7.42-2.4v13.71h11.67v6.33H131.85v26.11c0,3.1.52,5.32,1.58,6.65s2.8,2,5.25,2a7.84,7.84,0,0,0,4.84-1.54Z" transform="translate(-18.7 -159.5)"/><path class="cls-1" d="M182.6,180.67a4.74,4.74,0,0,1-3.39-1.36,4.59,4.59,0,0,1-1.4-3.44A4.75,4.75,0,0,1,182.6,171a4.78,4.78,0,0,1,3.46,1.38,4.82,4.82,0,0,1,0,6.85A4.73,4.73,0,0,1,182.6,180.67Zm3.62,58.08H178.8V192.43h7.42Z" transform="translate(-18.7 -159.5)"/><path class="cls-1" d="M239.7,238.75h-7.42V212.33q0-14.75-10.77-14.74a11.68,11.68,0,0,0-9.21,4.18,15.54,15.54,0,0,0-3.64,10.56v26.42h-7.42V192.43h7.42v7.69h.18q5.25-8.77,15.2-8.78,7.61,0,11.63,4.91t4,14.18Z" transform="translate(-18.7 -159.5)"/><path class="cls-1" d="M344.83,238.75h-7.42v-26.6q0-7.68-2.37-11.13t-8-3.43a9.86,9.86,0,0,0-8.07,4.34,16.58,16.58,0,0,0-3.33,10.4v26.42h-7.42v-27.5q0-13.67-10.54-13.66a9.76,9.76,0,0,0-8.05,4.09q-3.17,4.09-3.17,10.65v26.42h-7.42V192.43h7.42v7.33h.18q4.94-8.41,14.39-8.42a13.44,13.44,0,0,1,8.28,2.65,13.29,13.29,0,0,1,4.84,6.94q5.16-9.59,15.38-9.59,15.3,0,15.29,18.87Z" transform="translate(-18.7 -159.5)"/><path class="cls-1" d="M395.73,192.43l-21.31,53.74q-5.7,14.39-16,14.39a17.06,17.06,0,0,1-4.84-.59v-6.65a13.85,13.85,0,0,0,4.39.82q5.61,0,8.42-6.7l3.71-8.78L352,192.43h8.23l12.54,35.65c.15.45.46,1.63.95,3.53H374c.15-.73.45-1.87.9-3.44L388,192.43Z" transform="translate(-18.7 -159.5)"/><path class="cls-2" d="M453.72,210.3l-6.24,31.26a38.31,38.31,0,0,0-.86,5.56,7.31,7.31,0,0,0,.59,2.72,18.81,18.81,0,0,1-8.37,2.31c-1.57,0-2.35-.64-2.35-1.9a45.38,45.38,0,0,1,.9-5.61l6.83-34.34h-.68a23.15,23.15,0,0,0-8.77,1.94q2.22-4.78,3.91-6.17t5.41-1.38h1.22l5.43-27.05h-1q-9.86,0-15.7,5.38,1.77-7.16,6.11-9.55,3.08-1.66,19.09-1.67h11.9q13.31,0,22.12-2.35-2.81,4.94-5.86,6.58T478,177.68l-4,0H460.19l-5.38,27.05h9.77q9.09,0,15-2.31c-1.45,3.41-3.11,5.58-5,6.52s-5.59,1.4-11.1,1.4Z" transform="translate(-18.7 -159.5)"/><path class="cls-2" d="M501.36,238.44a12.67,12.67,0,0,1-4.95,1.45q-4.64,0-4.64-4.08a76.86,76.86,0,0,1,1.63-10.36l2.26-11.26q2.08-10,2.08-14.88a6.58,6.58,0,0,0-1.49-4.39,25,25,0,0,1,7.73-1.63c2.12,0,3.17,1.34,3.17,4q0,2.48-2.24,13.07l-2.56,13.16q8.53-16.59,17.19-25.81t15.71-9.2a6.7,6.7,0,0,1,4.29,1.42,4.27,4.27,0,0,1,1.81,3.46q0,3.18-6.87,8.42-1.72-3.57-4.88-3.57-5.75,0-14.64,12.21a113.34,113.34,0,0,0-9.58,15.68q-4.06,8.07-4.06,11.51Z" transform="translate(-18.7 -159.5)"/><path class="cls-2" d="M594.1,201.73q-10.23,17.93-20.67,28t-18.78,10.12a10.66,10.66,0,0,1-8.16-3.31,12.17,12.17,0,0,1-3.1-8.69,36.85,36.85,0,0,1,.9-6.47l1-5q2.22-10.77,2.21-15.12a5.91,5.91,0,0,0-1.53-4.21,47.58,47.58,0,0,1,7.37-1.35q3.35,0,3.35,4.7a55.12,55.12,0,0,1-1.31,10l-1.77,8.81a55.21,55.21,0,0,0-1.31,8.27c0,3.74,1.58,5.6,4.75,5.6q5.66,0,15.06-9.51a129.26,129.26,0,0,0,18.24-24.11ZM553.84,179l.63,0q3-.13,8.71-3.06a38.83,38.83,0,0,0,8.89-5.95A22,22,0,0,1,565,180.44q-7.69,6.42-10.4,6.42c-1.21,0-1.81-.73-1.81-2.21A14.68,14.68,0,0,1,553.84,179Z" transform="translate(-18.7 -159.5)"/><path class="cls-2" d="M619.8,212.29Q612.74,225,605,232.44t-13.78,7.45a8.83,8.83,0,0,1-7.69-4.23q-2.85-4.23-2.85-11.34a39.19,39.19,0,0,1,8.51-25q8.5-10.74,19.76-10.74,6.75,0,14.71,4.3l4.84-24.35a33.77,33.77,0,0,1-6.61.82c-2.65,0-4.6-.63-5.83-1.89s-2.23-3.61-3-7.07q3.25,2.22,10,2.22a43.56,43.56,0,0,0,16.15-3.07l-9.86,49.58a73.47,73.47,0,0,0-1.68,14.16q0,7.77,4.44,7.78t14.45-10.18a114.46,114.46,0,0,0,16.85-21.31l3.71,2.35a108.81,108.81,0,0,1-20.11,26.38q-12,11.63-19.25,11.63-9.13,0-9.13-14.66A79.23,79.23,0,0,1,619.8,212.29Zm2.39-12q-9.41-6.2-15.65-6.2-6.78,0-11.74,8.33t-4.95,19.68q0,9.13,6,9.13,6.42,0,24.7-28.41C620.73,202.5,621.29,201.66,622.19,200.3Z" transform="translate(-18.7 -159.5)"/><path class="cls-2" d="M691.59,211.57a46.82,46.82,0,0,1-12.71,15.87q-8.32,6.84-14.93,6.84a10.51,10.51,0,0,1-8.05-3.35,12.24,12.24,0,0,1-3.12-8.69q0-12.48,9.5-23.09T683,188.54a28.4,28.4,0,0,1,12.48,3.3c.61-2.89,1.48-4.72,2.63-5.47s4-1.37,8.73-1.86q-3.54,7.11-6.74,33.84l-.59,4.62q19.41-11.68,30-23.85l3.8,2.4q-10,13-34.07,28.32c-.09,1.18-.15,2-.18,2.63q-.68,11.35-2.4,16.73a27.35,27.35,0,0,1-6.19,10.23,28.07,28.07,0,0,1-21.36,9.45q-6.73,0-10.95-3.19a9.89,9.89,0,0,1-4.2-8.25,11.93,11.93,0,0,1,3.64-8.64q3.65-3.72,13.68-9.05,6.66-3.48,18.78-10.41Zm2.31-11.77Q688,193.56,681,193.56q-6.69,0-12.62,8.39a30.44,30.44,0,0,0-5.93,17.85c0,4.46,1.65,6.69,4.93,6.69s7.45-2.66,12.74-8A82.75,82.75,0,0,0,693.9,199.8Zm-4.34,35.56q-2.62,1.59-10.64,6.06-15.64,8.82-15.65,15.57a6,6,0,0,0,2.54,4.93,10.32,10.32,0,0,0,6.46,1.94Q689.57,263.86,689.56,235.36Z" transform="translate(-18.7 -159.5)"/><path class="cls-2" d="M729.86,219.92q0,13.23,11.22,13.22,9.74,0,21.45-9.25t21.12-24.37l3.85,2.12a84,84,0,0,1-23,27.4q-14.19,10.85-26.9,10.85-8.13,0-12.87-5.25T720,220.3a31.94,31.94,0,0,1,8.57-22.44q8.57-9.31,20.65-9.32,5.84,0,9.34,2.94a9.74,9.74,0,0,1,3.51,7.87q0,8.09-9.75,14.33A40.67,40.67,0,0,1,729.86,219.92Zm.37-4.34a29.51,29.51,0,0,0,16.21-5.42q6.76-4.92,6.77-11.37,0-5.78-5.16-5.77-6.15,0-11.35,6.58A32.15,32.15,0,0,0,730.23,215.58Z" transform="translate(-18.7 -159.5)"/><path class="cls-2" d="M783.88,227.9l3.26-.64a28.15,28.15,0,0,1,4.75-.63q3.93,0,3.93,4.12a21.09,21.09,0,0,1-.45,3.93l-.59,3.08-2.08.36a50,50,0,0,1-5.29.82q-3.21,0-3.21-3.35a8.64,8.64,0,0,1,.18-1.77l.22-1.17a7.21,7.21,0,0,0,.18-1.63A5.23,5.23,0,0,0,783.88,227.9ZM796,220.52l-2.39.5a7.73,7.73,0,0,1-1.5.14q-3.84,0-3.84-3.58a32.37,32.37,0,0,1,.81-6L790,207a155.73,155.73,0,0,0,3.3-30.44,16,16,0,0,0-.36-3.17,18.7,18.7,0,0,1,5.34-1.63q4.47,0,4.47,4.8,0,4.25-3.57,19.22-1.62,6.84-2.49,11.22l-.63,3.12a33.28,33.28,0,0,0-.68,6.47A12.24,12.24,0,0,0,796,220.52Z" transform="translate(-18.7 -159.5)"/></svg>