<svg id="Ebene_1" data-name="Ebene 1" xmlns="http://www.w3.org/2000/svg" viewBox="0 0 781.91 89.72"><defs><style>.cls-1{fill:#878787;}.cls-2{fill:#1d71b8;}</style></defs><title>Logo 1.1</title><path class="cls-1" d="M86.73,207.77,71.7,261H64.39l-11-38.89a24.31,24.31,0,0,1-.85-5.41h-.15a27.92,27.92,0,0,1-1,5.34l-11,39H33.22L17.64,207.77H24.5l11.32,40.82a26.36,26.36,0,0,1,.89,5.34h.19a30.5,30.5,0,0,1,1.15-5.34l11.76-40.82h6l11.28,41.11a29.92,29.92,0,0,1,.89,5h.15a29.93,29.93,0,0,1,1-5.12l10.87-41Z" transform="translate(-17.64 -195.97)"/><path class="cls-1" d="M125.35,261h-6.08V239.09q0-11.88-8.83-11.88a9.64,9.64,0,0,0-7.5,3.44,12.76,12.76,0,0,0-3,8.81V261H93.81V204.73H99.9v24.56h.15q4.38-7.2,12.47-7.2,12.83,0,12.83,15.48Z" transform="translate(-17.64 -195.97)"/><path class="cls-1" d="M164,261h-6.09V255h-.15a12.73,12.73,0,0,1-11.68,6.83q-5.68,0-8.89-3a10.4,10.4,0,0,1-3.21-8q0-10.65,12.54-12.4l11.39-1.59q0-9.69-7.83-9.69a18.71,18.71,0,0,0-12.39,4.68v-6.24a23.59,23.59,0,0,1,12.91-3.56q13.4,0,13.4,14.18Zm-6.09-19.22L148.77,243a14.79,14.79,0,0,0-6.38,2.1q-2.16,1.5-2.16,5.32a5.82,5.82,0,0,0,2,4.55,7.68,7.68,0,0,0,5.29,1.76,9.77,9.77,0,0,0,7.47-3.17,11.35,11.35,0,0,0,3-8Z" transform="translate(-17.64 -195.97)"/><path class="cls-1" d="M193.11,260.61a11.78,11.78,0,0,1-5.68,1.18q-10,0-10-11.13V228.18h-6.53V223h6.53v-9.27l6.09-2V223h9.57v5.2h-9.57v21.41c0,2.55.43,4.36,1.29,5.45s2.3,1.63,4.31,1.63a6.42,6.42,0,0,0,4-1.26Z" transform="translate(-17.64 -195.97)"/><path class="cls-1" d="M208.58,206.88l-4,16.55H199l5.19-16.55Z" transform="translate(-17.64 -195.97)"/><path class="cls-1" d="M216.34,259.61v-6.53a18,18,0,0,0,10.94,3.67q8,0,8-5.34a4.6,4.6,0,0,0-.69-2.58,6.91,6.91,0,0,0-1.86-1.88,14.06,14.06,0,0,0-2.74-1.46c-1-.44-2.18-.89-3.4-1.36a44,44,0,0,1-4.43-2,13.49,13.49,0,0,1-3.19-2.3,8.51,8.51,0,0,1-1.93-2.91,10.39,10.39,0,0,1-.65-3.82,9.16,9.16,0,0,1,1.22-4.74,11,11,0,0,1,3.27-3.45,15.35,15.35,0,0,1,4.66-2.09,20.62,20.62,0,0,1,5.4-.71,21.77,21.77,0,0,1,8.83,1.71V230a17.23,17.23,0,0,0-9.65-2.75,11.23,11.23,0,0,0-3.08.39,7.57,7.57,0,0,0-2.36,1.1,5.09,5.09,0,0,0-1.52,1.69,4.39,4.39,0,0,0-.54,2.17,5.17,5.17,0,0,0,.54,2.48,5.51,5.51,0,0,0,1.58,1.78,11.9,11.9,0,0,0,2.52,1.41c1,.42,2.12.88,3.38,1.38a47.08,47.08,0,0,1,4.53,2,15.75,15.75,0,0,1,3.41,2.3,9,9,0,0,1,2.17,3,9.47,9.47,0,0,1,.76,4,9.37,9.37,0,0,1-1.24,4.9,10.72,10.72,0,0,1-3.32,3.45,15,15,0,0,1-4.79,2,23.44,23.44,0,0,1-5.68.67A21.63,21.63,0,0,1,216.34,259.61Z" transform="translate(-17.64 -195.97)"/><path class="cls-1" d="M274.81,213.34a3.88,3.88,0,0,1-2.78-1.12,3.74,3.74,0,0,1-1.15-2.82,3.89,3.89,0,0,1,3.93-4,3.94,3.94,0,0,1,2.84,1.13,4,4,0,0,1,0,5.63A3.92,3.92,0,0,1,274.81,213.34Zm3,47.64H271.7V223h6.08Z" transform="translate(-17.64 -195.97)"/><path class="cls-1" d="M321.64,261h-6.09V239.31q0-12.1-8.83-12.1a9.58,9.58,0,0,0-7.55,3.44,12.69,12.69,0,0,0-3,8.66V261H290.1V223h6.09v6.31h.14a13.72,13.72,0,0,1,12.47-7.2q6.24,0,9.54,4t3.3,11.63Z" transform="translate(-17.64 -195.97)"/><path class="cls-1" d="M407.87,261h-6.08V239.16c0-4.2-.65-7.25-2-9.13s-3.48-2.82-6.55-2.82a8.1,8.1,0,0,0-6.62,3.56,13.63,13.63,0,0,0-2.73,8.54V261h-6.09V238.42q0-11.21-8.64-11.21a8,8,0,0,0-6.61,3.36,13.89,13.89,0,0,0-2.59,8.74V261h-6.09V223H360v6h.15a12.89,12.89,0,0,1,11.79-6.9,11,11,0,0,1,6.79,2.17,10.9,10.9,0,0,1,4,5.7q4.23-7.87,12.62-7.87,12.54,0,12.54,15.48Z" transform="translate(-17.64 -195.97)"/><path class="cls-1" d="M449.62,223l-17.48,44.08q-4.68,11.81-13.14,11.8a14,14,0,0,1-4-.48v-5.45a11.39,11.39,0,0,0,3.6.66q4.61,0,6.9-5.49l3.05-7.2L413.73,223h6.76l10.28,29.24c.12.37.38,1.34.78,2.9h.22c.12-.6.37-1.54.74-2.82L443.31,223Z" transform="translate(-17.64 -195.97)"/><path class="cls-2" d="M497.18,237.64l-5.12,25.64a30.82,30.82,0,0,0-.7,4.56,5.94,5.94,0,0,0,.48,2.23A15.45,15.45,0,0,1,485,272c-1.29,0-1.93-.52-1.93-1.56a36.38,36.38,0,0,1,.74-4.6l5.6-28.16h-.55a19,19,0,0,0-7.2,1.59q1.82-3.93,3.21-5.06a7,7,0,0,1,4.43-1.13h1l4.46-22.19h-.82q-8.09,0-12.88,4.42,1.45-5.86,5-7.83,2.52-1.38,15.66-1.38h9.76a71.59,71.59,0,0,0,18.14-1.93q-2.29,4.05-4.8,5.4t-7.7,1.36l-3.27,0H502.49L498.07,233h8a34.35,34.35,0,0,0,12.32-1.89q-1.78,4.18-4.1,5.34c-1.55.77-4.58,1.15-9.11,1.15Z" transform="translate(-17.64 -195.97)"/><path class="cls-2" d="M536.26,260.72a10.38,10.38,0,0,1-4.07,1.19c-2.53,0-3.8-1.12-3.8-3.34a62.11,62.11,0,0,1,1.34-8.5l1.85-9.24a66.83,66.83,0,0,0,1.71-12.21,5.39,5.39,0,0,0-1.23-3.6,20.64,20.64,0,0,1,6.35-1.33c1.73,0,2.6,1.1,2.6,3.3q0,2-1.85,10.72l-2.09,10.8q7-13.62,14.1-21.17t12.88-7.55a5.51,5.51,0,0,1,3.52,1.17,3.52,3.52,0,0,1,1.49,2.84q0,2.59-5.64,6.9-1.41-2.92-4-2.93-4.7,0-12,10a94.56,94.56,0,0,0-7.86,12.85q-3.33,6.63-3.33,9.45Z" transform="translate(-17.64 -195.97)"/><path class="cls-2" d="M612.32,230.61q-8.39,14.7-17,23T580,261.91a8.76,8.76,0,0,1-6.7-2.71,10,10,0,0,1-2.54-7.13,29.54,29.54,0,0,1,.74-5.31l.81-4.08a71.64,71.64,0,0,0,1.82-12.4,4.82,4.82,0,0,0-1.26-3.45,38.9,38.9,0,0,1,6-1.11q2.75,0,2.75,3.86a44.74,44.74,0,0,1-1.08,8.19L579.11,245a43.94,43.94,0,0,0-1.07,6.78c0,3.07,1.29,4.6,3.89,4.6q4.64,0,12.36-7.8a106.39,106.39,0,0,0,15-19.78Zm-33-18.68.52,0c1.65-.08,4-.91,7.14-2.51a31.81,31.81,0,0,0,7.29-4.88,18.09,18.09,0,0,1-5.79,8.57q-6.3,5.26-8.53,5.27c-1,0-1.49-.61-1.49-1.82A12.15,12.15,0,0,1,579.3,211.93Z" transform="translate(-17.64 -195.97)"/><path class="cls-2" d="M633.4,239.27a70.22,70.22,0,0,1-12.12,16.53q-6.33,6.1-11.3,6.11a7.24,7.24,0,0,1-6.3-3.47c-1.56-2.32-2.34-5.41-2.34-9.3a32.16,32.16,0,0,1,7-20.54q7-8.81,16.22-8.81,5.52,0,12.06,3.53l4-20a27.68,27.68,0,0,1-5.42.67c-2.18,0-3.77-.51-4.79-1.55s-1.83-3-2.44-5.79q2.67,1.81,8.2,1.81A35.73,35.73,0,0,0,649.35,196l-8.09,40.67a60.81,60.81,0,0,0-1.37,11.61c0,4.26,1.21,6.38,3.64,6.38s6.32-2.78,11.85-8.35a93.53,93.53,0,0,0,13.82-17.47l3,1.93a89.76,89.76,0,0,1-16.5,21.63q-9.88,9.54-15.79,9.54-7.49,0-7.49-12A65.41,65.41,0,0,1,633.4,239.27Zm2-9.83q-7.71-5.08-12.84-5.08-5.57,0-9.62,6.82a31,31,0,0,0-4.07,16.14q0,7.5,4.9,7.5,5.26,0,20.26-23.3C634.16,231.24,634.62,230.55,635.36,229.44Z" transform="translate(-17.64 -195.97)"/><path class="cls-2" d="M692.28,238.68a38.42,38.42,0,0,1-10.42,13q-6.84,5.61-12.25,5.61a8.6,8.6,0,0,1-6.6-2.75,10,10,0,0,1-2.56-7.12q0-10.24,7.79-18.95t17-8.7a23.23,23.23,0,0,1,10.24,2.71q.75-3.56,2.16-4.49c.94-.62,3.32-1.12,7.16-1.52q-2.89,5.82-5.53,27.75l-.48,3.79q15.91-9.57,24.56-19.56l3.12,2q-8.18,10.65-27.94,23.23c-.08,1-.13,1.68-.15,2.15q-.55,9.31-2,13.73a22.47,22.47,0,0,1-5.08,8.39,23,23,0,0,1-17.52,7.75,14.46,14.46,0,0,1-9-2.62,8.12,8.12,0,0,1-3.45-6.77,9.79,9.79,0,0,1,3-7.08q3-3,11.23-7.43,5.45-2.85,15.39-8.53Zm1.89-9.65q-4.81-5.11-10.61-5.12-5.49,0-10.35,6.88a25,25,0,0,0-4.86,14.64q0,5.49,4,5.49t10.45-6.55A67.65,67.65,0,0,0,694.17,229Zm-3.56,29.17q-2.15,1.29-8.72,5-12.84,7.23-12.84,12.76a4.93,4.93,0,0,0,2.08,4.05,8.51,8.51,0,0,0,5.31,1.59Q690.62,281.57,690.61,258.2Z" transform="translate(-17.64 -195.97)"/><path class="cls-2" d="M723.67,245.53q0,10.85,9.21,10.85,8,0,17.58-7.59a76.77,76.77,0,0,0,17.33-20l3.16,1.74A68.87,68.87,0,0,1,752,253q-11.62,8.89-22.06,8.9-6.68,0-10.56-4.31t-3.87-11.76a26.2,26.2,0,0,1,7-18.4,22.19,22.19,0,0,1,16.94-7.65,11.58,11.58,0,0,1,7.66,2.41,8,8,0,0,1,2.88,6.46q0,6.63-8,11.75A33.38,33.38,0,0,1,723.67,245.53ZM724,242a24.23,24.23,0,0,0,13.3-4.44q5.55-4,5.55-9.33c0-3.16-1.41-4.73-4.23-4.73q-5,0-9.31,5.4A26.31,26.31,0,0,0,724,242Z" transform="translate(-17.64 -195.97)"/><path class="cls-2" d="M781,246.43a5.58,5.58,0,0,1-3.12.82q-4.51,0-4.52-3.86,0-5.34,8-11.95l1.67-1.33q9-7.43,9-13.18,0-7-7.57-7T771,219a5.89,5.89,0,0,1-.74-2.94q0-4,5.71-7.68a21.75,21.75,0,0,1,12-3.67q5.46,0,8.53,2.76a9.72,9.72,0,0,1,3.08,7.63q0,7-9.76,14.47l-1.37,1.08q-8.34,6.42-8.35,12.54A6.67,6.67,0,0,0,781,246.43Zm-9,5.64,2.67-.52a24.46,24.46,0,0,1,3.94-.52c2.12,0,3.19,1.14,3.19,3.42a17.26,17.26,0,0,1-.37,3.19l-.49,2.52-1.7.3a41.82,41.82,0,0,1-4.34.67c-1.76,0-2.64-.92-2.64-2.75a7,7,0,0,1,.15-1.45l.18-1a6.48,6.48,0,0,0,.15-1.41A4.14,4.14,0,0,0,772,252.07Z" transform="translate(-17.64 -195.97)"/></svg>