<svg id="Ebene_1" data-name="Ebene 1" xmlns="http://www.w3.org/2000/svg" viewBox="0 0 766.38 101.97"><defs><style>.cls-1{fill:#1d71b8;}.cls-2{fill:#878787;}</style></defs><title>Logo 1.3</title><path class="cls-1" d="M54.7,200.33l-5.81,29.14a34.9,34.9,0,0,0-.81,5.19,6.89,6.89,0,0,0,.55,2.53,17.57,17.57,0,0,1-7.8,2.15q-2.19,0-2.19-1.77a42.63,42.63,0,0,1,.84-5.23l6.37-32h-.63A21.65,21.65,0,0,0,37,202.14c1.37-3,2.59-4.89,3.64-5.75s2.74-1.29,5-1.29h1.14l5.06-25.21H51q-9.18,0-14.63,5Q38,168.24,42.05,166q2.88-1.56,17.8-1.56H70.94a81.61,81.61,0,0,0,20.62-2.2c-1.74,3.07-3.56,5.11-5.46,6.14s-4.81,1.54-8.75,1.54l-3.71,0H60.74l-5,25.21h9.11a38.87,38.87,0,0,0,14-2.15c-1.35,3.18-2.91,5.2-4.66,6.07s-5.21,1.31-10.36,1.31Z" transform="translate(-36.36 -152.98)"/><path class="cls-1" d="M99.11,226.56a11.72,11.72,0,0,1-4.62,1.35q-4.32,0-4.32-3.79a72.31,72.31,0,0,1,1.52-9.66L93.8,204a76.43,76.43,0,0,0,1.94-13.88,6.11,6.11,0,0,0-1.4-4.09,23.5,23.5,0,0,1,7.21-1.51q3,0,3,3.75,0,2.33-2.1,12.19L100,212.69q8-15.48,16-24.06t14.64-8.58a6.24,6.24,0,0,1,4,1.33,4,4,0,0,1,1.69,3.22q0,3-6.41,7.85c-1.07-2.22-2.59-3.34-4.55-3.34q-5.36,0-13.65,11.39a105.82,105.82,0,0,0-8.92,14.61q-3.8,7.53-3.79,10.73Z" transform="translate(-36.36 -152.98)"/><path class="cls-1" d="M185.56,192.35Q176,209,166.28,218.48t-17.5,9.43a10,10,0,0,1-7.61-3.08,11.38,11.38,0,0,1-2.89-8.1,34.56,34.56,0,0,1,.85-6l.93-4.64q2.06-10,2.06-14.09a5.5,5.5,0,0,0-1.43-3.92,44.07,44.07,0,0,1,6.87-1.26q3.12,0,3.12,4.38a51.39,51.39,0,0,1-1.22,9.31l-1.65,8.21a51.41,51.41,0,0,0-1.22,7.71q0,5.23,4.43,5.23,5.26,0,14-8.87a120.69,120.69,0,0,0,17-22.48ZM148,171.12l.59,0c1.88-.09,4.59-1,8.11-2.85a36.34,36.34,0,0,0,8.29-5.55,20.51,20.51,0,0,1-6.58,9.74q-7.17,6-9.7,6-1.68,0-1.68-2.07A13.75,13.75,0,0,1,148,171.12Z" transform="translate(-36.36 -152.98)"/><path class="cls-1" d="M209.51,202.19Q202.93,214,195.74,221t-12.84,6.94a8.23,8.23,0,0,1-7.17-3.94q-2.65-3.94-2.66-10.57A36.56,36.56,0,0,1,181,190.06q7.94-10,18.43-10,6.28,0,13.7,4l4.52-22.69a31.76,31.76,0,0,1-6.16.77c-2.47,0-4.29-.59-5.44-1.76s-2.08-3.37-2.78-6.59q3,2.06,9.32,2.06a40.57,40.57,0,0,0,15-2.86l-9.19,46.21a68.85,68.85,0,0,0-1.56,13.2q0,7.26,4.13,7.26t13.47-9.49A106.82,106.82,0,0,0,250.2,190.3l3.46,2.19a101.48,101.48,0,0,1-18.74,24.58Q223.67,227.92,217,227.91q-8.52,0-8.52-13.66A74.79,74.79,0,0,1,209.51,202.19ZM211.74,191q-8.76-5.77-14.59-5.77-6.32,0-10.94,7.75a35.22,35.22,0,0,0-4.62,18.35q0,8.52,5.57,8.52,6,0,23-26.49Z" transform="translate(-36.36 -152.98)"/><path class="cls-1" d="M276.43,201.51a43.81,43.81,0,0,1-11.85,14.8q-7.75,6.38-13.91,6.37a9.8,9.8,0,0,1-7.51-3.12,11.4,11.4,0,0,1-2.91-8.1q0-11.62,8.86-21.52t19.31-9.89a26.38,26.38,0,0,1,11.64,3.08q.84-4,2.44-5.11c1.07-.7,3.78-1.28,8.14-1.72q-3.28,6.62-6.28,31.54l-.55,4.3q18.09-10.87,27.92-22.22l3.54,2.23q-9.28,12.1-31.75,26.4c-.09,1.1-.15,1.91-.17,2.44q-.64,10.59-2.24,15.61a25.49,25.49,0,0,1-5.78,9.53,26.14,26.14,0,0,1-19.9,8.81q-6.28,0-10.2-3a9.23,9.23,0,0,1-3.93-7.7,11.15,11.15,0,0,1,3.4-8.05q3.39-3.47,12.75-8.44,6.21-3.24,17.5-9.7Zm2.15-11q-5.47-5.82-12.06-5.82-6.24,0-11.76,7.82a28.31,28.31,0,0,0-5.53,16.64q0,6.24,4.6,6.24T265.7,208A77.39,77.39,0,0,0,278.58,190.55Zm-4.05,33.14q-2.44,1.49-9.91,5.65Q250,237.58,250,243.85a5.58,5.58,0,0,0,2.36,4.6,9.63,9.63,0,0,0,6,1.81Q274.53,250.26,274.53,223.69Z" transform="translate(-36.36 -152.98)"/><path class="cls-1" d="M312.11,209.3q0,12.33,10.45,12.33,9.07,0,20-8.63a87.3,87.3,0,0,0,19.7-22.72l3.58,2a78.17,78.17,0,0,1-21.49,25.54q-13.21,10.11-25.07,10.11-7.59,0-12-4.89t-4.41-13.37a29.78,29.78,0,0,1,8-20.91,25.22,25.22,0,0,1,19.25-8.69,13.1,13.1,0,0,1,8.71,2.74,9.07,9.07,0,0,1,3.27,7.33q0,7.55-9.09,13.36A37.89,37.89,0,0,1,312.11,209.3Zm.33-4.05a27.6,27.6,0,0,0,15.12-5q6.3-4.59,6.31-10.6c0-3.59-1.61-5.39-4.81-5.39-3.83,0-7.35,2.05-10.59,6.14A30.07,30.07,0,0,0,312.44,205.25Z" transform="translate(-36.36 -152.98)"/><path class="cls-2" d="M410,226.86h-6.92v-6.75h-.16q-4.51,7.75-13.29,7.76-6.45,0-10.1-3.42a11.82,11.82,0,0,1-3.64-9.06q0-12.1,14.25-14.09l12.94-1.81q0-11-8.89-11a21.24,21.24,0,0,0-14.09,5.32v-7.09a26.78,26.78,0,0,1,14.68-4.05q15.23,0,15.22,16.11ZM403.06,205l-10.41,1.44a16.85,16.85,0,0,0-7.25,2.38c-1.63,1.14-2.45,3.15-2.45,6a6.59,6.59,0,0,0,2.26,5.17,8.72,8.72,0,0,0,6,2,11.06,11.06,0,0,0,8.49-3.61,12.84,12.84,0,0,0,3.35-9.13Z" transform="translate(-36.36 -152.98)"/><path class="cls-1" d="M424.11,187a10.62,10.62,0,0,1-1-4.52q0-7.59,11.59-13.6a56.33,56.33,0,0,1,26.27-6q15.44,0,24.31,6.83t8.88,18.72q0,15.81-13.79,27.87a57.89,57.89,0,0,1-18.24,10.42,60.23,60.23,0,0,1-20.93,4.05q-9.62,0-9.62-7.21a70.37,70.37,0,0,1,1.65-10.8l5.48-27.53a29.17,29.17,0,0,0,.71-5.11,4.13,4.13,0,0,0-1-2.7q5.61-2.1,7.8-2.1c1.75,0,2.62,1,2.62,3q0,.72-1.35,7.38l-4.6,23.07a82.2,82.2,0,0,0-1.73,11.09,3.52,3.52,0,0,0,1.71,3.43c1.14.6,3.28.91,6.43.91q15.32,0,25.64-9.32a29.88,29.88,0,0,0,10.33-23.11q0-10.67-7.51-17.07t-20-6.41a38.37,38.37,0,0,0-19,4.89A41.92,41.92,0,0,0,424.11,187Z" transform="translate(-36.36 -152.98)"/><path class="cls-1" d="M552,192.35q-9.53,16.69-19.27,26.13t-17.5,9.43a10,10,0,0,1-7.61-3.08,11.38,11.38,0,0,1-2.89-8.1,33.59,33.59,0,0,1,.85-6l.92-4.64q2.07-10,2.07-14.09a5.5,5.5,0,0,0-1.43-3.92,44.07,44.07,0,0,1,6.87-1.26q3.12,0,3.12,4.38a51.39,51.39,0,0,1-1.22,9.31l-1.65,8.21A51.41,51.41,0,0,0,513,216.4q0,5.23,4.43,5.23,5.27,0,14-8.87a120.24,120.24,0,0,0,17-22.48Zm-37.53-21.23.59,0c1.89-.09,4.59-1,8.12-2.85a36.34,36.34,0,0,0,8.29-5.55,20.51,20.51,0,0,1-6.58,9.74q-7.17,6-9.7,6c-1.12,0-1.69-.69-1.69-2.07A13.94,13.94,0,0,1,514.43,171.12Z" transform="translate(-36.36 -152.98)"/><path class="cls-1" d="M554.24,211.72q15-31.68,26.91-31.67,9.32,0,9.31,18.55l.09,5.11q0,8.85.91,12.25t3.31,3.39q3.62,0,8.24-5.78t15-23.23l3.55,2.06q-9.29,17.5-16.62,26t-13.16,8.48q-5.35,0-7.52-5.19t-2.17-18l0-3.63q0-6.92-.88-9.72c-.59-1.87-1.62-2.81-3.08-2.81q-5.57,0-17.92,22.23c-2,3.62-3.33,6-3.92,7Q553,222.42,553,225a3.73,3.73,0,0,0,.55,1.94,11.33,11.33,0,0,1-4.14,1c-2.84,0-4.25-1.57-4.25-4.72q0-1.35,1.09-12.15l.93-9.15a89.81,89.81,0,0,0,.63-9,11.08,11.08,0,0,0-2-7l3-1a13.18,13.18,0,0,1,4.17-.92c2.2,0,3.29,1.6,3.29,4.8q0,2.53-.63,8.69c-.08.9-.17,1.76-.25,2.57Z" transform="translate(-36.36 -152.98)"/><path class="cls-1" d="M623.91,211.72q15-31.68,26.9-31.67,9.32,0,9.32,18.55l.08,5.11q0,8.85.91,12.25c.6,2.26,1.71,3.39,3.31,3.39q3.63,0,8.24-5.78t15-23.23l3.54,2.06q-9.29,17.5-16.62,26t-13.15,8.48q-5.36,0-7.53-5.19t-2.17-18l0-3.63q0-6.92-.89-9.72c-.59-1.87-1.62-2.81-3.08-2.81q-5.57,0-17.92,22.23c-2,3.62-3.33,6-3.92,7q-3.25,5.64-3.25,8.18a3.73,3.73,0,0,0,.55,1.94,11.33,11.33,0,0,1-4.13,1q-4.26,0-4.26-4.72,0-1.35,1.1-12.15l.92-9.15a90.42,90.42,0,0,0,.64-9,11.08,11.08,0,0,0-2-7l2.95-1a13.29,13.29,0,0,1,4.18-.92q3.28,0,3.29,4.8,0,2.53-.64,8.69c-.08.9-.16,1.76-.25,2.57Z" transform="translate(-36.36 -152.98)"/><path class="cls-1" d="M688.09,209.3q0,12.33,10.45,12.33,9.08,0,20-8.63a87.3,87.3,0,0,0,19.7-22.72l3.58,2a78.17,78.17,0,0,1-21.49,25.54q-13.22,10.11-25.06,10.11-7.59,0-12-4.89t-4.41-13.37a29.82,29.82,0,0,1,8-20.91,25.22,25.22,0,0,1,19.25-8.69,13.1,13.1,0,0,1,8.71,2.74,9.07,9.07,0,0,1,3.27,7.33q0,7.55-9.09,13.36A37.89,37.89,0,0,1,688.09,209.3Zm.33-4.05a27.6,27.6,0,0,0,15.12-5q6.3-4.59,6.31-10.6c0-3.59-1.61-5.39-4.81-5.39q-5.73,0-10.59,6.14A30.07,30.07,0,0,0,688.42,205.25Z" transform="translate(-36.36 -152.98)"/><path class="cls-1" d="M740.38,226.56a11.72,11.72,0,0,1-4.62,1.35q-4.32,0-4.32-3.79a71.58,71.58,0,0,1,1.51-9.66l2.11-10.5A75.53,75.53,0,0,0,737,190.08a6.11,6.11,0,0,0-1.39-4.09,23.45,23.45,0,0,1,7.21-1.51q3,0,2.95,3.75,0,2.33-2.09,12.19l-2.38,12.27q8-15.48,16-24.06T772,180.05a6.24,6.24,0,0,1,4,1.33,4,4,0,0,1,1.68,3.22q0,3-6.41,7.85c-1.06-2.22-2.58-3.34-4.54-3.34q-5.36,0-13.65,11.39a106.88,106.88,0,0,0-8.93,14.61q-3.78,7.53-3.79,10.73Z" transform="translate(-36.36 -152.98)"/><path class="cls-1" d="M785.16,216.74l3-.59a25.76,25.76,0,0,1,4.42-.6q3.68,0,3.67,3.84a19.62,19.62,0,0,1-.42,3.67l-.55,2.87-1.94.34a45.69,45.69,0,0,1-4.93.75c-2,0-3-1-3-3.12a8.07,8.07,0,0,1,.16-1.64l.21-1.1a6.13,6.13,0,0,0,.17-1.51A4.86,4.86,0,0,0,785.16,216.74Zm11.3-6.88-2.23.47a7.61,7.61,0,0,1-1.4.12c-2.38,0-3.58-1.11-3.58-3.33a29.8,29.8,0,0,1,.76-5.57l.84-4.25a144.55,144.55,0,0,0,3.08-28.38,14.53,14.53,0,0,0-.34-3,17.62,17.62,0,0,1,5-1.51q4.17,0,4.17,4.47,0,4-3.33,17.92-1.51,6.36-2.32,10.46l-.59,2.91a30.76,30.76,0,0,0-.63,6A11.48,11.48,0,0,0,796.46,209.86Z" transform="translate(-36.36 -152.98)"/></svg>