<svg id="Ebene_2" data-name="Ebene 2" xmlns="http://www.w3.org/2000/svg" viewBox="0 0 820.11 113.57"><defs><style>.cls-1{fill:#3c3c3b;}.cls-2{fill:#1d71b8;}</style></defs><title>Logo 1.2</title><path class="cls-1" d="M15.26,200.67v25.46H7.37V158.78H25.88q10.8,0,16.74,5.26t5.94,14.84A20.43,20.43,0,0,1,42,194.57q-6.6,6.1-17.82,6.1Zm0-34.76v27.62h8.27q8.17,0,12.47-3.73t4.3-10.55q0-13.33-15.79-13.34Z" transform="translate(-7.37 -143.84)"/><path class="cls-1" d="M99.1,226.13H91.4v-7.61h-.19q-4.78,8.73-14.84,8.74-17.19,0-17.19-20.48V178h7.65v27.53q0,15.21,11.65,15.21a11.79,11.79,0,0,0,9.28-4.15q3.63-4.16,3.64-10.88V178h7.7Z" transform="translate(-7.37 -143.84)"/><path class="cls-1" d="M137,225.66a14.89,14.89,0,0,1-7.19,1.5q-12.63,0-12.63-14.09V184.61h-8.27V178h8.27V166.29l7.7-2.49V178H137v6.58H124.84v27.1c0,3.22.55,5.53,1.64,6.9s2.92,2.07,5.45,2.07a8.08,8.08,0,0,0,5-1.6Z" transform="translate(-7.37 -143.84)"/><path class="cls-1" d="M177.54,165.82a4.87,4.87,0,0,1-3.52-1.41,4.73,4.73,0,0,1-1.46-3.57,4.94,4.94,0,0,1,5-5,5,5,0,0,1,3.59,1.43,5,5,0,0,1,0,7.11A4.9,4.9,0,0,1,177.54,165.82Zm3.76,60.31h-7.71V178h7.71Z" transform="translate(-7.37 -143.84)"/><path class="cls-1" d="M236.81,226.13h-7.7V198.7q0-15.31-11.18-15.31a12.15,12.15,0,0,0-9.56,4.34,16.11,16.11,0,0,0-3.78,11v27.43h-7.7V178h7.7v8h.19q5.44-9.12,15.78-9.11,7.89,0,12.07,5.09t4.18,14.73Z" transform="translate(-7.37 -143.84)"/><path class="cls-1" d="M346,226.13h-7.71V198.51q0-8-2.46-11.55t-8.29-3.57q-4.93,0-8.39,4.51a17.23,17.23,0,0,0-3.45,10.8v27.43H308V197.57q0-14.17-10.94-14.18a10.14,10.14,0,0,0-8.37,4.25q-3.29,4.25-3.28,11.06v27.43h-7.71V178h7.71v7.61h.18q5.13-8.73,14.94-8.73a13.86,13.86,0,0,1,13.62,10q5.36-10,16-10,15.87,0,15.88,19.58Z" transform="translate(-7.37 -143.84)"/><path class="cls-1" d="M398.81,178l-22.13,55.8q-5.91,14.94-16.62,14.94a17.9,17.9,0,0,1-5-.61v-6.91a14.13,14.13,0,0,0,4.56.85q5.82,0,8.73-6.95l3.85-9.12-18.78-48h8.55l13,37c.15.47.48,1.69,1,3.67h.28c.16-.75.47-1.94.94-3.57L390.82,178Z" transform="translate(-7.37 -143.84)"/><path class="cls-2" d="M465.12,196.59,458.64,229a39.78,39.78,0,0,0-.89,5.78,7.52,7.52,0,0,0,.61,2.82,19.59,19.59,0,0,1-8.69,2.39c-1.63,0-2.44-.66-2.44-2a46.71,46.71,0,0,1,.94-5.83l7.09-35.64h-.7a24,24,0,0,0-9.11,2q2.3-5,4.06-6.41t5.61-1.43h1.27L462,162.67h-1q-10.23,0-16.3,5.59,1.83-7.41,6.34-9.91,3.2-1.74,19.83-1.73h12.35q13.8,0,23-2.45c-1.95,3.42-4,5.69-6.09,6.84s-5.36,1.71-9.74,1.71l-4.14-.05H471.84l-5.59,28.09H476.4q9.44,0,15.59-2.39c-1.5,3.53-3.23,5.79-5.19,6.76s-5.8,1.46-11.53,1.46Z" transform="translate(-7.37 -143.84)"/><path class="cls-2" d="M514.58,225.8a13.07,13.07,0,0,1-5.14,1.5q-4.81,0-4.81-4.22a79.51,79.51,0,0,1,1.69-10.76l2.34-11.7q2.16-10.43,2.17-15.45a6.82,6.82,0,0,0-1.55-4.55,25.93,25.93,0,0,1,8-1.69q3.29,0,3.28,4.18,0,2.58-2.33,13.57l-2.65,13.67q8.86-17.23,17.85-26.8T549.77,174a7,7,0,0,1,4.46,1.48,4.45,4.45,0,0,1,1.87,3.6q0,3.28-7.14,8.73c-1.19-2.47-2.87-3.71-5.06-3.71q-6,0-15.2,12.68a118.45,118.45,0,0,0-9.94,16.28q-4.23,8.38-4.22,11.95Z" transform="translate(-7.37 -143.84)"/><path class="cls-2" d="M610.87,187.69q-10.62,18.62-21.47,29.11t-19.49,10.5a11.08,11.08,0,0,1-8.48-3.43,12.65,12.65,0,0,1-3.21-9,37.61,37.61,0,0,1,.94-6.72l1-5.16q2.29-11.19,2.3-15.69a6.07,6.07,0,0,0-1.6-4.37,49.13,49.13,0,0,1,7.66-1.41c2.32,0,3.47,1.63,3.47,4.88a56.53,56.53,0,0,1-1.36,10.37l-1.83,9.15a56.15,56.15,0,0,0-1.36,8.59c0,3.88,1.64,5.81,4.93,5.81q5.86,0,15.64-9.87a134.46,134.46,0,0,0,18.93-25ZM569.07,164l.65.05q3.15-.14,9-3.17a40.25,40.25,0,0,0,9.23-6.18,22.88,22.88,0,0,1-7.32,10.85q-8,6.66-10.81,6.67c-1.25,0-1.87-.77-1.87-2.3A15.46,15.46,0,0,1,569.07,164Z" transform="translate(-7.37 -143.84)"/><path class="cls-2" d="M637.55,198.65q-7.34,13.2-15.34,20.93t-14.3,7.72a9.19,9.19,0,0,1-8-4.39q-3-4.4-2.95-11.76a40.65,40.65,0,0,1,8.83-26Q614.62,174,626.32,174q7,0,15.27,4.47l5-25.28a35,35,0,0,1-6.86.85q-4.12,0-6.06-2t-3.1-7.34Q634,147,641,147a45.15,45.15,0,0,0,16.77-3.19L647.5,195.32a76.3,76.3,0,0,0-1.73,14.7q0,8.07,4.6,8.08t15-10.57a119.23,119.23,0,0,0,17.5-22.12l3.85,2.44a112.92,112.92,0,0,1-20.88,27.38q-12.51,12.08-20,12.07-9.5,0-9.49-15.22A82.23,82.23,0,0,1,637.55,198.65ZM640,186.21q-9.78-6.44-16.26-6.44-7,0-12.18,8.64t-5.15,20.43q0,9.49,6.2,9.49,6.68,0,25.65-29.49C638.52,188.49,639.1,187.61,640,186.21Z" transform="translate(-7.37 -143.84)"/><path class="cls-2" d="M712.08,197.9a48.7,48.7,0,0,1-13.19,16.49q-8.65,7.08-15.5,7.09A10.9,10.9,0,0,1,675,218a12.68,12.68,0,0,1-3.24-9q0-13,9.86-24t21.51-11a29.55,29.55,0,0,1,13,3.43c.63-3,1.54-4.9,2.73-5.68s4.21-1.43,9.06-1.93q-3.66,7.38-7,35.14l-.61,4.79q20.16-12.12,31.1-24.76l3.94,2.49Q745,201,720,216.88c-.1,1.22-.16,2.12-.19,2.72q-.7,11.79-2.49,17.38a28.44,28.44,0,0,1-6.44,10.61,29.09,29.09,0,0,1-22.17,9.82q-7,0-11.36-3.31a10.3,10.3,0,0,1-4.37-8.57,12.39,12.39,0,0,1,3.78-9q3.78-3.85,14.21-9.4,6.9-3.61,19.49-10.8Zm2.4-12.21q-6.11-6.48-13.43-6.48-7,0-13.11,8.71a31.57,31.57,0,0,0-6.15,18.53q0,6.95,5.12,7t13.22-8.29A85.88,85.88,0,0,0,714.48,185.69ZM710,222.61c-1.82,1.09-5.49,3.19-11,6.29q-16.24,9.16-16.25,16.16a6.22,6.22,0,0,0,2.63,5.12,10.76,10.76,0,0,0,6.72,2Q710,252.2,710,222.61Z" transform="translate(-7.37 -143.84)"/><path class="cls-2" d="M751.82,206.57q0,13.74,11.65,13.73,10.1,0,22.26-9.6t21.94-25.31l4,2.2A87.08,87.08,0,0,1,787.73,216Q773,227.31,759.8,227.3q-8.44,0-13.36-5.45T741.53,207a33.2,33.2,0,0,1,8.9-23.3q8.91-9.67,21.45-9.68c4,0,7.27,1,9.69,3a10.12,10.12,0,0,1,3.64,8.17q0,8.41-10.12,14.88A42.21,42.21,0,0,1,751.82,206.57Zm.38-4.51A30.6,30.6,0,0,0,769,196.44q7-5.1,7-11.8,0-6-5.36-6-6.39,0-11.79,6.84A33.34,33.34,0,0,0,752.2,202.06Z" transform="translate(-7.37 -143.84)"/><path class="cls-2" d="M807.9,214.86l3.38-.66a29.15,29.15,0,0,1,4.93-.66c2.73,0,4.09,1.43,4.09,4.27a22.08,22.08,0,0,1-.47,4.09l-.61,3.19-2.16.38a51.85,51.85,0,0,1-5.5.85q-3.33,0-3.33-3.48a8.48,8.48,0,0,1,.19-1.83l.23-1.22a7.12,7.12,0,0,0,.19-1.69A5.38,5.38,0,0,0,807.9,214.86Zm12.59-7.66-2.49.52a8.27,8.27,0,0,1-1.55.14q-4,0-4-3.71a33.57,33.57,0,0,1,.84-6.2l.94-4.75a161.12,161.12,0,0,0,3.43-31.61,16.53,16.53,0,0,0-.38-3.28,19.56,19.56,0,0,1,5.55-1.69c3.1,0,4.65,1.65,4.65,5q0,4.42-3.71,20c-1.13,4.72-2,8.61-2.59,11.64l-.66,3.24a34.27,34.27,0,0,0-.7,6.72A12.67,12.67,0,0,0,820.49,207.2Z" transform="translate(-7.37 -143.84)"/></svg>