<svg id="Ebene_2" data-name="Ebene 2" xmlns="http://www.w3.org/2000/svg" viewBox="0 0 815.74 184.8"><defs><style>.cls-1{fill:#878787;}.cls-2{fill:#fff;}.cls-3{fill:#1d71b8;}</style></defs><title>Logo 1.4</title><path class="cls-1" d="M36.93,154.69c-.18-.11-.36-.23-.56-.34-5.93-3.4-12.83-2.49-15.42,2s.13,10.93,6.06,14.32c.13.08.26.14.39.21C31.71,162.21,31.7,161.89,36.93,154.69Z" transform="translate(-19.98 -124.37)"/><path class="cls-1" d="M68,278.42l81.82-143C76.62,101.64,39.29,156,39.29,156c-8,11.68-9.57,16.72-9.57,16.72C3,236.55,68,278.42,68,278.42Z" transform="translate(-19.98 -124.37)"/><path class="cls-2" d="M45.84,157.35c35.81-36.69,91.69-17.85,91.69-17.85L128.64,155C68.2,139,45.84,157.35,45.84,157.35Z" transform="translate(-19.98 -124.37)"/><path class="cls-1" d="M132.82,201a5.92,5.92,0,0,1-4.28-1.71,5.8,5.8,0,0,1-1.77-4.35,6,6,0,0,1,6-6.11,6.06,6.06,0,0,1,4.37,1.74,6.11,6.11,0,0,1,0,8.66A6,6,0,0,1,132.82,201Zm4.57,73.34H128V215.8h9.37Z" transform="translate(-19.98 -124.37)"/><path class="cls-1" d="M204.91,274.29h-9.37V240.93q0-18.62-13.6-18.62a14.72,14.72,0,0,0-11.62,5.29,19.54,19.54,0,0,0-4.6,13.33v33.36h-9.37V215.8h9.37v9.71H166q6.63-11.08,19.19-11.08,9.6,0,14.68,6.2t5.09,17.9Z" transform="translate(-19.98 -124.37)"/><path class="cls-1" d="M269.57,247.39h-41.3q.22,9.77,5.25,15.08t13.83,5.31a28.72,28.72,0,0,0,18.16-6.51v8.8q-7.71,5.6-20.39,5.59-12.39,0-19.48-8t-7.08-22.42q0-13.67,7.74-22.25a24.83,24.83,0,0,1,19.22-8.6q11.47,0,17.76,7.43t6.29,20.62Zm-9.6-7.94q-.06-8.12-3.91-12.62t-10.71-4.52a15.12,15.12,0,0,0-11.25,4.74,21.58,21.58,0,0,0-5.72,12.4Z" transform="translate(-19.98 -124.37)"/><path class="cls-1" d="M314.24,225.28q-2.46-1.87-7.09-1.88-6,0-10,5.65t-4,15.43v29.81h-9.37V215.8h9.37v12h.23a20.39,20.39,0,0,1,6.11-9.62,13.91,13.91,0,0,1,9.2-3.46,15.42,15.42,0,0,1,5.6.8Z" transform="translate(-19.98 -124.37)"/><path class="cls-1" d="M335.71,191l-6.17,25.48H321L329,191Z" transform="translate(-19.98 -124.37)"/><path class="cls-1" d="M347.65,272.18V262.13a27.71,27.71,0,0,0,16.85,5.65q12.35,0,12.34-8.22a7.06,7.06,0,0,0-1.06-4,10.42,10.42,0,0,0-2.85-2.89,21.51,21.51,0,0,0-4.23-2.25q-2.43-1-5.23-2.09a69.06,69.06,0,0,1-6.82-3.11,20.48,20.48,0,0,1-4.91-3.55,12.9,12.9,0,0,1-3-4.48,15.78,15.78,0,0,1-1-5.88,13.93,13.93,0,0,1,1.88-7.28,16.68,16.68,0,0,1,5-5.32,23.44,23.44,0,0,1,7.17-3.22,31.47,31.47,0,0,1,8.31-1.09,33.59,33.59,0,0,1,13.59,2.63v9.48a26.46,26.46,0,0,0-14.85-4.23,17.36,17.36,0,0,0-4.74.6,11.49,11.49,0,0,0-3.63,1.69,7.71,7.71,0,0,0-2.34,2.6,6.86,6.86,0,0,0-.83,3.34,8.07,8.07,0,0,0,.83,3.83,8.45,8.45,0,0,0,2.43,2.74,18.54,18.54,0,0,0,3.88,2.17c1.52.65,3.26,1.35,5.2,2.11a72,72,0,0,1,7,3.06,23.49,23.49,0,0,1,5.25,3.54,14,14,0,0,1,3.35,4.54,14.64,14.64,0,0,1,1.17,6.11,14.38,14.38,0,0,1-1.92,7.54,16.29,16.29,0,0,1-5.11,5.31,23.49,23.49,0,0,1-7.37,3.15,36.64,36.64,0,0,1-8.74,1A33.24,33.24,0,0,1,347.65,272.18Z" transform="translate(-19.98 -124.37)"/><path class="cls-3" d="M439.21,206.92,429.1,257.55a60.89,60.89,0,0,0-1.39,9,11.8,11.8,0,0,0,1,4.39q-7.4,3.74-13.55,3.74-3.81,0-3.81-3.08a74.78,74.78,0,0,1,1.46-9.08l11.07-55.61h-1.1a37.39,37.39,0,0,0-14.22,3.15q3.6-7.75,6.34-10t8.76-2.23h2l8.8-43.81h-1.62q-16,0-25.42,8.71,2.87-11.56,9.89-15.45,5-2.72,30.92-2.72h19.27q21.54,0,35.82-3.81-4.55,8-9.49,10.66t-15.2,2.68l-6.44-.07H449.69L441,197.84h15.82q14.73,0,24.33-3.74-3.53,8.28-8.1,10.55t-18,2.27Z" transform="translate(-19.98 -124.37)"/><path class="cls-3" d="M474.43,270.73a15.92,15.92,0,0,1-6.26,1.83q-5.85,0-5.85-5.14,0-2.62,2.05-13.08l2.86-14.23q2.63-12.68,2.63-18.79a8.27,8.27,0,0,0-1.89-5.54,31.82,31.82,0,0,1,9.77-2.06c2.66,0,4,1.7,4,5.09q0,3.13-2.84,16.51l-3.23,16.62q10.79-21,21.72-32.59t19.83-11.62a8.54,8.54,0,0,1,5.42,1.79,5.42,5.42,0,0,1,2.28,4.38q0,4-8.68,10.62-2.18-4.52-6.16-4.51-7.24,0-18.48,15.42a144.36,144.36,0,0,0-12.1,19.79q-5.13,10.2-5.13,14.54Z" transform="translate(-19.98 -124.37)"/><path class="cls-3" d="M591.52,224.39q-12.9,22.62-26.1,35.4t-23.71,12.77a13.45,13.45,0,0,1-10.3-4.17q-3.92-4.17-3.92-11a46.24,46.24,0,0,1,1.14-8.17l1.26-6.29q2.8-13.59,2.8-19.08a7.44,7.44,0,0,0-1.94-5.31,59.73,59.73,0,0,1,9.31-1.71c2.82,0,4.23,2,4.23,5.93a69.54,69.54,0,0,1-1.66,12.61l-2.23,11.13A69.7,69.7,0,0,0,538.74,257q0,7.08,6,7.08,7.14,0,19-12t23-30.45Zm-50.83-28.76.8.05q3.82-.17,11-3.86a49.12,49.12,0,0,0,11.23-7.51,27.87,27.87,0,0,1-8.91,13.19q-9.72,8.12-13.14,8.11c-1.52,0-2.29-.93-2.29-2.79A18.65,18.65,0,0,1,540.69,195.63Z" transform="translate(-19.98 -124.37)"/><path class="cls-3" d="M624,237.72q-8.91,16-18.65,25.44t-17.4,9.4a11.16,11.16,0,0,1-9.71-5.34q-3.6-5.34-3.6-14.31a49.48,49.48,0,0,1,10.74-31.62q10.74-13.56,25-13.56,8.5,0,18.56,5.42L635,182.41a42.14,42.14,0,0,1-8.34,1c-3.35,0-5.8-.79-7.37-2.38s-2.82-4.57-3.77-8.93c2.75,1.87,7,2.8,12.63,2.8a55,55,0,0,0,20.39-3.88l-12.45,62.6A93.12,93.12,0,0,0,634,251.54q0,9.82,5.6,9.82t18.25-12.85a144.82,144.82,0,0,0,21.28-26.9l4.68,3a137.49,137.49,0,0,1-25.39,33.3q-15.23,14.69-24.3,14.68-11.54,0-11.54-18.51A101,101,0,0,1,624,237.72Zm3-15.14q-11.88-7.83-19.76-7.83-8.57,0-14.82,10.51t-6.26,24.85q0,11.53,7.54,11.54,8.12,0,31.19-35.87C625.15,225.36,625.85,224.29,627,222.58Z" transform="translate(-19.98 -124.37)"/><path class="cls-3" d="M714.62,236.8a59.28,59.28,0,0,1-16,20.05q-10.52,8.63-18.85,8.63a13.28,13.28,0,0,1-10.17-4.23,15.44,15.44,0,0,1-3.94-11q0-15.76,12-29.16t26.17-13.39q7.31,0,15.76,4.17c.76-3.66,1.87-6,3.31-6.91s5.12-1.74,11-2.35q-4.46,9-8.51,42.73l-.75,5.83q24.51-14.74,37.82-30.11l4.8,3q-12.57,16.4-43,35.76c-.11,1.48-.19,2.59-.22,3.31q-.87,14.34-3,21.14a34.64,34.64,0,0,1-7.83,12.91q-11.08,11.92-27,11.93-8.5,0-13.82-4A12.52,12.52,0,0,1,667,294.72a15.07,15.07,0,0,1,4.6-10.91q4.59-4.68,17.27-11.42,8.4-4.41,23.71-13.14ZM717.53,222q-7.42-7.89-16.34-7.88-8.45,0-15.93,10.59a38.4,38.4,0,0,0-7.48,22.54q0,8.45,6.22,8.45,6.06,0,16.08-10.08A104.47,104.47,0,0,0,717.53,222Zm-5.48,44.9q-3.31,2-13.43,7.65-19.75,11.14-19.76,19.65a7.56,7.56,0,0,0,3.2,6.23,13.06,13.06,0,0,0,8.17,2.45Q712,302.83,712.05,266.85Z" transform="translate(-19.98 -124.37)"/><path class="cls-3" d="M762.94,247.35q0,16.7,14.17,16.7,12.28,0,27.07-11.68t26.68-30.78l4.85,2.68a105.8,105.8,0,0,1-29.1,34.59q-17.91,13.69-34,13.7-10.27,0-16.25-6.63t-6-18.1a40.38,40.38,0,0,1,10.83-28.34q10.82-11.76,26.07-11.76,7.38,0,11.8,3.71a12.29,12.29,0,0,1,4.43,9.93q0,10.23-12.31,18.1A51.41,51.41,0,0,1,762.94,247.35Zm.46-5.48A37.37,37.37,0,0,0,783.88,235q8.54-6.21,8.54-14.36,0-7.29-6.52-7.29-7.75,0-14.33,8.32A40.53,40.53,0,0,0,763.4,241.87Z" transform="translate(-19.98 -124.37)"/></svg>